<svg xmlns="http://www.w3.org/2000/svg" width="1280" height="340" viewBox="0 0 1280 340">
  <rect width="1280" height="340" fill="#F1E7D1"/>
  <rect x="20" y="20" width="1240" height="300" fill="none" stroke="#E4D4B0" stroke-width="2" rx="12"/>
  <g stroke="#8A7755" stroke-width="2" fill="none">
    <path d="M38 54 V38 H54"/>
    <path d="M1226 38 H1242 V54"/>
    <path d="M38 302 V286 H54"/>
    <path d="M1226 286 H1242 V302"/>
  </g>
  <g transform="translate(215.5,85.5) scale(6.5)">
    <path d="M3 7 L10 4 L16 7 L23 4 L23 19 L16 22 L10 19 L3 22 Z" fill="none" stroke="#2A2014" stroke-width="1.5" stroke-linejoin="round"/>
    <path d="M10 4 V19 M16 7 V22" stroke="#2A2014" stroke-width="1.2" opacity="0.45"/>
    <path d="M6 18 Q9 12 13 14 T20 9" fill="none" stroke="#136A57" stroke-width="1.5" stroke-linecap="round"/>
    <circle cx="20" cy="9" r="1.9" fill="#C5451B"/>
  </g>
  <text x="430" y="166" font-family="Georgia, 'Times New Roman', serif" font-size="78" font-weight="600" fill="#2A2014" letter-spacing="-1">Cartograph</text>
  <text x="433" y="210" font-family="'Segoe UI', Arial, sans-serif" font-size="27" fill="#5A4B33">The never-stale cache for AI agents on Postgres</text>
  <text x="435" y="250" font-family="Consolas, 'Courier New', monospace" font-size="18" fill="#136A57" letter-spacing="3">0 STALE  ·  MIT  ·  MCP-NATIVE</text>
</svg>
